<svg width="309" height="61" viewBox="0 0 309 61" fill="none" xmlns="http://www.w3.org/2000/svg">
<path d="M11.6888 12.4039V29.3955H32.1865V39.5905H11.6888V59.9805H0V2.20892H36.7603V12.4039H11.6888Z" fill="white"/>
<path d="M43.9811 17.5014H55.3311V59.9805H43.9811V17.5014ZM43.9811 0.594705H55.3311V12.0641H43.9811V0.594705Z" fill="white"/>
<path d="M65.8181 17.5014H77.0834V19.8802C79.2292 18.6342 81.1208 17.7563 82.7584 17.2465C84.4524 16.7368 86.2594 16.4819 88.1793 16.4819C93.3743 16.4819 97.0729 18.1527 99.2751 21.4944C101.477 24.8361 102.578 29.9902 102.578 36.9568V59.9805H91.2285V37.2967C91.2285 33.3886 90.7485 30.6416 89.7886 29.0557C88.8851 27.4698 87.1346 26.6769 84.5371 26.6769C82.6737 26.6769 80.5562 27.0734 78.1845 27.8663L77.1681 28.2061V59.9805H65.8181V17.5014Z" fill="white"/>
<path d="M122.969 61C114.217 61 109.84 56.3556 109.84 47.0668C109.84 42.649 110.998 39.4772 113.313 37.5515C115.685 35.5692 119.468 34.4081 124.663 34.0682L133.726 33.3886V30.7549C133.726 29.0557 133.331 27.8663 132.54 27.1866C131.806 26.507 130.536 26.1671 128.729 26.1671C126.865 26.1671 124.296 26.2521 121.021 26.422C117.746 26.5353 115.007 26.6769 112.805 26.8468L112.466 18.9457C118.565 17.3032 124.324 16.4819 129.745 16.4819C135.166 16.4819 139.062 17.6147 141.434 19.8802C143.862 22.1458 145.076 25.7707 145.076 30.7549V48.4262C145.189 49.8422 145.415 50.805 145.754 51.3148C146.149 51.8245 146.855 52.1927 147.871 52.4192L147.532 61C144.596 61 142.253 60.8018 140.502 60.4053C138.808 60.0088 137.114 59.2159 135.42 58.0265C131.298 60.0088 127.148 61 122.969 61ZM125.425 51.7396C127.571 51.7396 129.914 51.3997 132.456 50.7201L133.726 50.3802V41.2897L126.018 41.9694C122.856 42.2526 121.275 43.9517 121.275 47.0668C121.275 50.182 122.658 51.7396 125.425 51.7396Z" fill="white"/>
<path d="M155.896 17.5014H167.161V19.8802C169.307 18.6342 171.199 17.7563 172.836 17.2465C174.53 16.7368 176.337 16.4819 178.257 16.4819C183.452 16.4819 187.151 18.1527 189.353 21.4944C191.555 24.8361 192.656 29.9902 192.656 36.9568V59.9805H181.306V37.2967C181.306 33.3886 180.826 30.6416 179.866 29.0557C178.963 27.4698 177.212 26.6769 174.615 26.6769C172.751 26.6769 170.634 27.0734 168.262 27.8663L167.246 28.2061V59.9805H155.896V17.5014Z" fill="white"/>
<path d="M203.56 52.2493H208.219V59.9805H203.56V52.2493Z" fill="white"/>
<path d="M240.456 60.7451C234.526 60.7451 229.953 59.6123 226.734 57.3468C223.572 55.0246 221.398 51.7112 220.212 47.4067C219.026 43.0455 218.433 37.325 218.433 30.2451C218.433 23.4485 218.97 17.9262 220.043 13.6783C221.172 9.37372 223.318 6.03203 226.48 3.6532C229.698 1.21773 234.301 0 240.286 0C244.578 0 249.66 0.538069 255.532 1.61421L255.278 5.52228C249.744 4.44615 244.691 3.90808 240.117 3.90808C235.317 3.90808 231.703 4.78598 229.275 6.54178C226.847 8.24095 225.181 11.0446 224.278 14.9526C223.374 18.8607 222.922 24.4963 222.922 31.8593C222.922 37.8064 223.346 42.5357 224.193 46.0474C225.096 49.5023 226.875 52.1643 229.529 54.0334C232.183 55.9025 236.108 56.837 241.303 56.837C245.368 56.837 250.027 56.2707 255.278 55.1379L255.532 59.046C250.055 60.1787 245.029 60.7451 240.456 60.7451Z" fill="white"/>
<path d="M286.215 60.7451C280.399 60.7451 275.825 59.6973 272.494 57.6017C269.162 55.506 266.791 52.2776 265.379 47.9164C264.024 43.5552 263.346 37.7781 263.346 30.585C263.346 23.4485 264.052 17.6713 265.464 13.2535C266.932 8.77902 269.303 5.46565 272.578 3.31337C275.91 1.10446 280.427 0 286.131 0C291.777 0 296.267 1.10446 299.598 3.31337C302.93 5.46565 305.33 8.77902 306.798 13.2535C308.266 17.7279 309 23.5901 309 30.8398C309 38.2029 308.294 44.0367 306.882 48.3412C305.471 52.6458 303.127 55.7892 299.852 57.7716C296.577 59.7539 292.032 60.7451 286.215 60.7451ZM286.215 56.922C291.015 56.922 294.714 56.0724 297.311 54.3733C299.965 52.6175 301.829 49.8988 302.902 46.2173C303.974 42.4791 304.511 37.3533 304.511 30.8398C304.511 24.3264 303.946 19.1439 302.817 15.2925C301.744 11.3844 299.852 8.49582 297.142 6.62674C294.488 4.75766 290.817 3.82312 286.131 3.82312C281.387 3.82312 277.661 4.75766 274.95 6.62674C272.296 8.43918 270.404 11.2711 269.275 15.1226C268.202 18.974 267.666 24.1281 267.666 30.585C267.666 37.2117 268.23 42.4225 269.36 46.2173C270.489 49.9554 272.381 52.6741 275.035 54.3733C277.689 56.0724 281.416 56.922 286.215 56.922Z" fill="white"/>
</svg>
